# xmcd CD database file
#
# Track frame offsets:
#	150
#	36382
#	69167
#	99812
#	128541
#	148866
#	166976
#	186198
#	205389
#	249876
#	266158
#	304127
#	338083
#
# Disc length: 4788 seconds
#
# Revision: 1
# Processed by: cddbd v1.5.1PL0 Copyright (c) Steve Scherf et al.
# Submitted via: CDex 1.51
#
DISCID=b512b20d
DTITLE=Clifford Brown - I Get a Kick Out of You
DYEAR=1953
DGENRE=Jazz
TTITLE0=Delilah
TTITLE1=Ghost of a  Chance
TTITLE2=Joy Spring
TTITLE3=Stompin at the Savoy
TTITLE4=Mildama
TTITLE5=Daahoud
TTITLE6=Bones for Jones
TTITLE7=Tiny Capers
TTITLE8=Jordu
TTITLE9=I Can't Get Started
TTITLE10=I Get a Kick Out of You
TTITLE11=Parisian Thoroughfare
TTITLE12=You're Not the Kind
EXTD=YEAR: 1953
EXTT0=
EXTT1=
EXTT2=
EXTT3=
EXTT4=
EXTT5=
EXTT6=
EXTT7=
EXTT8=
EXTT9=
EXTT10=
EXTT11=
EXTT12=
PLAYORDER=
